<svg xmlns="http://www.w3.org/2000/svg" version="1.1" xmlns:xlink="http://www.w3.org/1999/xlink" xmlns:svgjs="http://svgjs.com/svgjs" width="512" height="512" x="0" y="0" viewBox="0 0 480 480" style="enable-background:new 0 0 512 512" xml:space="preserve" class=""><g><path xmlns="http://www.w3.org/2000/svg" d="m369 137v10h28c4.418 0 8 3.582 8 8s-3.582 8-8 8h-36c-4.418 0-8-3.582-8-8v-18c0-14.337 11.663-26 26-26 5.514 0 10-4.486 10-10s-4.486-10-10-10h-18c-4.418 0-8-3.582-8-8s3.582-8 8-8h18c14.337 0 26 11.663 26 26s-11.663 26-26 26c-5.514 0-10 4.486-10 10zm-46.324 180.621c-4.074 1.711-5.988 6.4-4.276 10.474 23.49 55.912-17.821 117.905-78.4 117.905-46.869 0-85-38.131-85-85 0-66.761 73.777-107.282 129.996-72.128 3.744 2.341 8.682 1.204 11.024-2.542s1.204-8.682-2.542-11.024c-66.691-41.705-154.478 6.237-154.478 85.694 0 55.691 45.309 101 101 101 71.972 0 121.084-73.624 93.149-140.103-1.711-4.072-6.399-5.991-10.473-4.276zm-133.891-148.641c2.188-3.838.853-8.724-2.985-10.913-3.839-2.187-8.723-.853-10.913 2.985-15.113 26.491-43.424 42.948-73.887 42.948-46.869 0-85-38.131-85-85s38.131-85 85-85 85 38.131 85 85c0 4.418 3.582 8 8 8s8-3.582 8-8c0-55.691-45.309-101-101-101s-101 45.309-101 101 45.309 101 101 101c36.194 0 69.832-19.55 87.785-51.02zm291.215-49.98c0 55.691-45.309 101-101 101s-101-45.309-101-101 45.309-101 101-101 101 45.309 101 101zm-16 0c0-46.869-38.131-85-85-85s-85 38.131-85 85 38.131 85 85 85 85-38.131 85-85zm-223.024 198h-17.976c-4.418 0-8 3.582-8 8s3.582 8 8 8h17.976c5.514 0 10 4.486 10 10s-4.486 10-10 10h-7.976c-4.418 0-8 3.582-8 8s3.582 8 8 8h7.976c5.514 0 10 4.486 10 10s-4.486 10-10 10h-17.976c-4.418 0-8 3.582-8 8s3.582 8 8 8h17.976c22.84 0 34.574-27.521 18.735-44 15.823-16.463 4.121-44-18.735-44zm-157.976-170c-4.418 0-8 3.582-8 8s3.582 8 8 8h36c4.418 0 8-3.582 8-8s-3.582-8-8-8h-10v-64c0-4.418-3.582-8-8-8h-18c-4.418 0-8 3.582-8 8s3.582 8 8 8h10v56zm146-20h22c4.418 0 8-3.582 8-8s-3.582-8-8-8h-22c-4.418 0-8 3.582-8 8s3.582 8 8 8zm77.459 127.197c2.78 0 5.481-1.45 6.957-4.038l8.489-14.888c2.188-3.838.852-8.724-2.986-10.912-3.84-2.19-8.724-.851-10.912 2.986l-8.489 14.888c-3.054 5.356.861 11.964 6.941 11.964z" fill="#fb9300" data-original="#000000" class=""></path></g></svg>