<svg xmlns="http://www.w3.org/2000/svg" version="1.1" xmlns:xlink="http://www.w3.org/1999/xlink" xmlns:svgjs="http://svgjs.com/svgjs" width="512" height="512" x="0" y="0" viewBox="0 0 64 64" style="enable-background:new 0 0 512 512" xml:space="preserve" class=""><g><path xmlns="http://www.w3.org/2000/svg" id="path3683" d="m14.009 3.999c-1.59 0-3.115.633-4.24 1.758-1.124 1.124-1.758 2.657-1.758 4.248v43.995c0 1.591.634 3.124 1.758 4.248 1.125 1.125 2.65 1.758 4.24 1.758h36.004c1.591 0 3.124-.633 4.248-1.758 1.125-1.124 1.75-2.657 1.75-4.248v-43.995c0-1.591-.625-3.124-1.75-4.248-1.124-1.125-2.657-1.758-4.248-1.758h-36.004zm0 4.004h36.004c.534 0 1.04.21 1.416.586.375.375.586.881.586 1.416v43.995c0 .535-.211 1.041-.586 1.416-.375.376-.882.586-1.416.586h-36.004c-.534 0-1.032-.21-1.408-.586-.375-.375-.586-.881-.586-1.416v-43.995c0-.535.211-1.041.586-1.416.376-.376.874-.586 1.408-.586z" fill="#6250a6" data-original="#000000" class=""></path><path xmlns="http://www.w3.org/2000/svg" id="path3679" d="m25.012 18.005c-1.095-.001-1.998.898-2.002 1.994v.001c0 1.098.903 2.001 2 2.001h14.002c1.097 0 2-.903 2-2.001v-.001c-.003-1.096-.906-1.995-2.002-1.994z" fill="#6250a6" data-original="#000000" class=""></path><path xmlns="http://www.w3.org/2000/svg" id="path3675" d="m25.012 30s-.001 0-.002 0c-1.097 0-2 .903-2 2v.004c0 1.098.903 2 2 2h14.002c1.097 0 2-.902 2-2v-.004c0-1.097-.903-2-2-2-.001 0-.001 0-.002 0z" fill="#6250a6" data-original="#000000" class=""></path><path xmlns="http://www.w3.org/2000/svg" id="path3671" d="m25.012 42.004s-.001 0-.002 0c-1.097 0-2 .903-2 2v.002c.004 1.096.907 1.995 2.002 1.994h13.998c1.096.001 1.999-.898 2.002-1.994 0 0 0-.001 0-.002 0-1.097-.903-2-2-2-.001 0-.001 0-.002 0z" fill="#6250a6" data-original="#000000" class=""></path></g></svg>